<?xml version="1.0" encoding="UTF-8"?>
<!-- Generator: visioncortex VTracer 0.6.2 -->
<svg version="1.1" xmlns="http://www.w3.org/2000/svg" width="1280" height="656">
<path d="M0 0 C422.4 0 844.8 0 1280 0 C1280 216.48 1280 432.96 1280 656 C857.6 656 435.2 656 0 656 C0 439.52 0 223.04 0 0 Z " fill="#0F0F1E" transform="translate(0,0)"/>
<path d="M0 0 C4.00291641 3.66934004 6.69974484 7.04560426 9 12 C8.75 14.9375 8.75 14.9375 8 17 C7.34 17 6.68 17 6 17 C6 19.97 6 22.94 6 26 C12.88927711 25.77776525 18.56856444 24.23206938 25 21.9375 C39.33723688 16.93829317 39.33723688 16.93829317 46.09375 19.92578125 C48.94670145 21.61011989 51.4865985 23.60036904 54.09765625 25.6328125 C58.98691235 29.55381685 58.98691235 29.55381685 65 31 C64.5978125 32.60875 64.5978125 32.60875 64.1875 34.25 C63.56213077 39.36909383 65.37562059 42.93245398 67.47265625 47.52734375 C69.20136189 51.45782792 70.61013179 55.44059529 72 59.5 C73.68082921 64.3564986 75.41752092 69.14626208 77.4375 73.875 C82.31195876 85.29606195 86.66565125 97.03557212 90 109 C90.66 109 91.32 109 92 109 C92 109.66 92 110.32 92 111 C92.66 111 93.32 111 94 111 C92.99378269 115.32673443 91.60918602 118.19227091 88.00219727 120.91040039 C79.80777142 125.36982272 70.02366957 125.47171854 60.9375 125.375 C59.84373047 125.38660156 58.74996094 125.39820313 57.62304688 125.41015625 C47.86021094 125.37530972 36.40490075 124.12771195 29 117 C28 113.6875 28 113.6875 28 111 C28.99 110.34 29.98 109.68 31 109 C31.495 107.515 31.495 107.515 32 106 C32.66 106 33.32 106 34 106 C34.06058594 105.37351562 34.12117188 104.74703125 34.18359375 104.1015625 C34.30927734 102.87566406 34.30927734 102.87566406 34.4375 101.625 C34.55931641 100.40683594 34.55931641 100.40683594 34.68359375 99.1640625 C35 97 35 97 36 95 C36.66 95 37.32 95 38 95 C38 93.02 38 91.04 38 89 C38.66 88.67 39.32 88.34 40 88 C40.34541851 85.66842508 40.67794257 83.33491639 41 81 C41.99 79.515 41.99 79.515 43 78 C43.67784992 75.66989091 44.34416793 73.33640176 45 71 C45.66666667 69.66666667 46.33333333 68.33333333 47 67 C47.165 66.113125 47.33 65.22625 47.5 64.3125 C47.665 63.549375 47.83 62.78625 48 62 C48.66 61.67 49.32 61.34 50 61 C50.3548954 59.00371336 50.68578929 57.00309329 51 55 C51.9375 52.9375 51.9375 52.9375 53 51 C54.69300392 47.08492843 55.85911585 43.10718295 57 39 C57.33 38.01 57.66 37.02 58 36 C54.63522036 30.51009638 50.23139797 26.71900634 44 25 C35.58487827 23.79783975 28.592247 27.11929905 20.9375 30.22167969 C18.18618707 31.32691981 15.40941892 32.35648887 12.625 33.375 C11.77164063 33.69210937 10.91828125 34.00921875 10.0390625 34.3359375 C8 35 8 35 6 35 C6.0844018 45.344476 6.1792847 55.68879778 6.28752708 66.0330534 C6.33746022 70.836378 6.38379059 75.63968092 6.421875 80.44311523 C6.45876539 85.07920756 6.50513568 89.71511724 6.55806351 94.35105324 C6.57658748 96.11922818 6.59170282 97.88744224 6.60334396 99.65567589 C6.62024059 102.13351495 6.64928372 104.61093755 6.68115234 107.08862305 C6.68331253 107.81870575 6.68547272 108.54878845 6.68769836 109.30099487 C6.75328423 113.29605296 7.24022601 116.39894294 9 120 C8.34 120.66 7.68 121.32 7 122 C6.0005376 132.05273225 6.3391863 140.73405914 12.53125 149.05859375 C15.34494891 152.53853901 15.34494891 152.53853901 19 155 C19 155.66 19 156.32 19 157 C19.71929687 157.28746094 20.43859375 157.57492187 21.1796875 157.87109375 C22.97729013 158.59063275 24.77423733 159.31181291 26.5703125 160.03515625 C27.83488281 160.54369141 27.83488281 160.54369141 29.125 161.0625 C29.97320312 161.40410156 30.82140625 161.74570312 31.6953125 162.09765625 C33.44451422 162.78251319 35.21790513 163.40596838 37 164 C39 167 39 167 38.6875 169.125 C38 171 38 171 37 172 C34.77684959 172.10491167 32.55032142 172.1385721 30.32470703 172.14526367 C29.27833069 172.15030159 29.27833069 172.15030159 28.21081543 172.15544128 C25.89312992 172.16497922 23.57551645 172.16689592 21.2578125 172.16796875 C19.65217051 172.17117975 18.04652882 172.1745437 16.44088745 172.17805481 C13.06979697 172.18405347 9.69873216 172.185894 6.32763672 172.18530273 C2.00418496 172.18520116 -2.31910239 172.19884522 -6.64251518 172.21607494 C-9.96075193 172.22718537 -13.27894885 172.22922223 -16.5972023 172.22869301 C-18.19123017 172.22987489 -19.78525902 172.23430826 -21.37926865 172.24202538 C-23.60826922 172.25180453 -25.83691184 172.24895543 -28.06591797 172.24291992 C-29.33531219 172.24434494 -30.60470642 172.24576996 -31.91256714 172.24723816 C-35 172 -35 172 -38 170 C-37.67 168.35 -37.34 166.7 -37 165 C-36.46632813 164.85304688 -35.93265625 164.70609375 -35.3828125 164.5546875 C-24.46120807 161.26686886 -15.70876586 155.76659247 -9.71875 145.88671875 C-6.75054456 140.25772915 -5.85243991 135.24940932 -5.8125 128.875 C-5.79832031 127.84117187 -5.78414063 126.80734375 -5.76953125 125.7421875 C-5.79591855 122.78279966 -5.79591855 122.78279966 -8 120 C-7.625 117.3125 -7.625 117.3125 -7 115 C-6.34 115 -5.68 115 -5 115 C-5.33 88.6 -5.66 62.2 -6 35 C-25.00720245 25.99916166 -25.00720245 25.99916166 -44.63671875 25.69921875 C-49.34049398 27.96599043 -53.46968276 30.09807042 -57 34 C-56.66738022 38.17626651 -55.46157796 41.81237746 -53.953125 45.69921875 C-53.31286377 47.36500977 -53.31286377 47.36500977 -52.65966797 49.06445312 C-52.19447754 50.26005859 -51.72928711 51.45566406 -51.25 52.6875 C-50.25506 55.27368538 -49.26457036 57.86157235 -48.2734375 60.44921875 C-48.01277496 61.12814178 -47.75211243 61.80706482 -47.48355103 62.50656128 C-44.52869063 70.20908991 -41.62882679 77.93198283 -38.74743652 85.66226196 C-38.16805076 87.21475558 -37.58708915 88.76666206 -37.0045166 90.31796265 C-36.18426813 92.50230208 -35.36888722 94.68839996 -34.5546875 96.875 C-34.31037994 97.52277908 -34.06607239 98.17055817 -33.81436157 98.83796692 C-32.56903848 102.20074048 -31.58632416 105.46018358 -31 109 C-30.34 109 -29.68 109 -29 109 C-29 109.66 -29 110.32 -29 111 C-28.34 111 -27.68 111 -27 111 C-27.50910906 115.45470427 -28.69728763 117.93894951 -32 121 C-35.26465986 122.31455522 -38.57982925 123.18880566 -42 124 C-42.58837646 124.17273438 -43.17675293 124.34546875 -43.78295898 124.5234375 C-48.75999664 125.59327315 -53.99355746 125.22830308 -59.0625 125.25 C-60.24005859 125.270625 -61.41761719 125.29125 -62.63085938 125.3125 C-72.4941729 125.35616713 -82.15856851 124.46918098 -90 118 C-92.85101475 114.9589176 -93 114.3743888 -93 110 C-91.515 109.505 -91.515 109.505 -90 109 C-89.505 108.01 -89.505 108.01 -89 107 C-88.34 107 -87.68 107 -87 107 C-87.185625 106.38125 -87.37125 105.7625 -87.5625 105.125 C-88 103 -88 103 -87 101 C-86.34 101 -85.68 101 -85 101 C-85.020625 100.05125 -85.04125 99.1025 -85.0625 98.125 C-85 95 -85 95 -84 93 C-83.34 93 -82.68 93 -82 93 C-82.061875 92.278125 -82.12375 91.55625 -82.1875 90.8125 C-81.96201538 87.43023074 -80.74809119 85.86686955 -79 83 C-78.63371323 81.00577205 -78.29868656 79.00546689 -78 77 C-76.47457627 73.23728814 -76.47457627 73.23728814 -74 72 C-74.33 71.01 -74.66 70.02 -75 69 C-74.34 68.01 -73.68 67.02 -73 66 C-72.63557767 64.33985384 -72.30027117 62.67293936 -72 61 C-71.67 60.34 -71.34 59.68 -71 59 C-70.34 59 -69.68 59 -69 59 C-69.33 58.01 -69.66 57.02 -70 56 C-69.34 56 -68.68 56 -68 56 C-68 54.35 -68 52.7 -68 51 C-67.34 51 -66.68 51 -66 51 C-66.061875 49.948125 -66.12375 48.89625 -66.1875 47.8125 C-66 44 -66 44 -64.4375 41.625 C-62.29094835 37.70521003 -63.2266559 34.27668606 -64 30 C-62.66388672 30.11794922 -62.66388672 30.11794922 -61.30078125 30.23828125 C-57.26620869 29.94702808 -56.1230758 28.88939813 -53.1875 26.1875 C-46.56695116 20.57096833 -40.72070594 18.38452274 -32 19 C-28.20503439 19.95516833 -24.51769097 21.18279318 -20.8125 22.4375 C-18.86096414 23.08289988 -16.90915183 23.7274646 -14.95703125 24.37109375 C-14.10085205 24.65911865 -13.24467285 24.94714355 -12.36254883 25.24389648 C-10.25398217 25.91871626 -8.15409988 26.49251236 -6 27 C-5.94577053 25.5629191 -5.90710277 24.12524538 -5.875 22.6875 C-5.85179687 21.88699219 -5.82859375 21.08648437 -5.8046875 20.26171875 C-5.84182678 17.71611424 -5.84182678 17.71611424 -8 15 C-8.15117821 8.65051538 -3.89268709 4.57365324 0 0 Z " fill="#DF8E24" transform="translate(371,242)"/>
<path d="M0 0 C2.06503817 2.56349566 2.90968386 4.36778701 3.375 7.625 C3 10 3 10 1.9375 11.875 C-1.14310296 13.6637372 -3.63416459 12.73436409 -7 12 C-7.66 11.67 -8.32 11.34 -9 11 C-9 10.01 -9 9.02 -9 8 C-9.66 8 -10.32 8 -11 8 C-12.15362085 12.95006339 -12.15362085 12.95006339 -10.625 17.625 C-7.85672122 23.37450207 -7.11379287 30.14936763 -8.5546875 36.41015625 C-11.37475563 42.88633042 -16.82300039 46.60212017 -23.125 49.375 C-29.07289216 50.33433745 -34.9896214 50.15005106 -41 50 C-41 50.66 -41 51.32 -41 52 C-41.66 52 -42.32 52 -43 52 C-43 52.66 -43 53.32 -43 54 C-43.66 54 -44.32 54 -45 54 C-45 55.65 -45 57.3 -45 59 C-38.60426372 60.54735555 -32.48680913 61.21255473 -25.9375 61.5 C-10.23362728 62.25194387 -10.23362728 62.25194387 -5.125 66.25 C-1.42530073 71.03784611 0.7532054 74.84882259 0 81 C-0.85604726 83.43530685 -1.87938319 85.66538165 -3 88 C-0.36 88 2.28 88 5 88 C5.33 87.34 5.66 86.68 6 86 C6 86.66 6 87.32 6 88 C70.35 88 134.7 88 201 88 C201 88.33 201 88.66 201 89 C199.93778638 89.00054477 198.87557276 89.00108953 197.78117085 89.00165081 C171.95093023 89.01603778 146.12085831 89.05901933 120.29071522 89.13209057 C107.79950312 89.16676316 95.30840163 89.19209908 82.81713867 89.19555664 C71.93142286 89.19859337 61.04590393 89.21904468 50.16026419 89.26052457 C44.39483151 89.28188258 38.62967894 89.2944407 32.86420631 89.28615379 C27.43945907 89.27863154 22.01528022 89.29436244 16.59063721 89.32806015 C14.59802106 89.33631542 12.60534863 89.33601761 10.61273766 89.32659721 C7.89441553 89.31501651 5.17796906 89.33402971 2.45979309 89.36076355 C1.668931 89.35009029 0.87806891 89.33941703 0.0632413 89.32842034 C-3.98033823 89.4027553 -5.7274626 89.76519231 -8.83586597 92.44327259 C-9.5500302 93.28699264 -10.26419443 94.13071268 -11 95 C-17.22971043 98.12274093 -24.00919328 100.61162185 -31 101 C-31.84046875 101.05027344 -32.6809375 101.10054688 -33.546875 101.15234375 C-43.99971102 101.51328422 -51.09994084 98.80124998 -59 92 C-59.66 91.34 -60.32 90.68 -61 90 C-63.87004116 89.79425021 -66.64473889 89.71493125 -69.51663208 89.7215271 C-70.40855534 89.7157347 -71.30047861 89.7099423 -72.21942985 89.70397437 C-75.2259124 89.68688849 -78.23224225 89.68409051 -81.23876953 89.68115234 C-83.38682434 89.67186009 -85.53487552 89.66169248 -87.68292236 89.65071106 C-93.52971717 89.62331777 -99.37648777 89.6082341 -105.22333002 89.59528303 C-111.32794136 89.57969317 -117.43250294 89.55288984 -123.53707886 89.5272522 C-135.10384852 89.48039079 -146.67062748 89.44368238 -158.2374438 89.41057932 C-171.40292941 89.37240984 -184.56836514 89.32298621 -197.73380876 89.27259517 C-224.82250224 89.16916585 -251.91122774 89.07994133 -279 89 C-279 88.67 -279 88.34 -279 88 C-277.88717085 88.0031424 -276.7743417 88.00628481 -275.62779045 88.00952244 C-248.56211694 88.08389379 -221.49677614 88.10665385 -194.43101311 88.07515812 C-181.34220286 88.06112443 -168.25379853 88.06391965 -155.16503906 88.10620117 C-143.7580954 88.14300726 -132.35164671 88.14837182 -120.94468224 88.11582941 C-114.90341908 88.09969662 -108.8630845 88.09941094 -102.8218956 88.13676643 C-97.13663136 88.17142459 -91.45297568 88.16407238 -85.76775932 88.12437057 C-83.68039975 88.11722184 -81.59292237 88.1254782 -79.50569725 88.15022469 C-68.89447887 88.78718937 -68.89447887 88.78718937 -59.49554825 85.00778008 C-57.96024234 82.70818538 -56.99913744 80.56428217 -56 78 C-53.19486896 75.39523546 -50.49234953 73.55215535 -47 72 C-47.763125 71.443125 -48.52625 70.88625 -49.3125 70.3125 C-52.03761792 67.96763109 -53.62510498 66.31592329 -55 63 C-54.2149031 58.02771963 -49.95884697 53.89814325 -46 51 C-44.68 51 -43.36 51 -42 51 C-44.55125977 47.77340676 -46.92710514 44.95289063 -50.1875 42.4375 C-53.77208365 39.33086083 -54.76882943 37.42939257 -55.21484375 32.7421875 C-55.47207556 26.01300327 -54.84559771 20.25771876 -50.30078125 15.0546875 C-42.82394815 8.03322144 -36.27948156 6.53754639 -26.14453125 6.76171875 C-22.20241835 7.06043786 -18.76604794 7.81849476 -15 9 C-14.6596875 8.1646875 -14.6596875 8.1646875 -14.3125 7.3125 C-11.01176902 1.49692637 -6.74736713 -2.3615785 0 0 Z " fill="#E08F25" transform="translate(796,277)"/>
<path d="M0 0 C422.4 0 844.8 0 1280 0 C1280 197.34 1280 394.68 1280 598 C1279.34 597.67 1278.68 597.34 1278 597 C1277.67 400.65 1277.34 204.3 1277 2 C855.59 2 434.18 2 0 2 C0 1.34 0 0.68 0 0 Z " fill="#F7E7D2" transform="translate(0,0)"/>
<path d="M0 0 C2.875 2.125 2.875 2.125 5 5 C5.93213703 6.10869781 6.86962754 7.21291744 7.8125 8.3125 C8.534375 9.199375 9.25625 10.08625 10 11 C12.07932014 9.06752045 12.07932014 9.06752045 13.5 6.625 C18.43968532 1.43833041 24.77429753 -0.22825614 31.8125 -0.4375 C35.99288293 -0.24908837 38.84889249 0.03986871 42 3 C47.85613325 11.19858655 48.30919154 20.57577207 48.1953125 30.3828125 C48.1924826 31.32309296 48.18965271 32.26337341 48.18673706 33.23214722 C48.17565978 36.19656827 48.15057951 39.16067231 48.125 42.125 C48.11495407 44.15103726 48.10583106 46.17707932 48.09765625 48.203125 C48.07576144 53.13553635 48.04131957 58.06771468 48 63 C46.18757948 63.02687279 44.37504767 63.04633715 42.5625 63.0625 C41.55316406 63.07410156 40.54382813 63.08570313 39.50390625 63.09765625 C37 63 37 63 36 62 C35.89327608 60.55343428 35.85380802 59.1018187 35.84228516 57.65136719 C35.83202301 56.72660583 35.82176086 55.80184448 35.81118774 54.84906006 C35.80388641 53.84183899 35.79658508 52.83461792 35.7890625 51.796875 C35.76098714 49.68098194 35.73232263 47.56509662 35.703125 45.44921875 C35.66188492 42.10042592 35.625014 38.75177672 35.59863281 35.40283203 C35.57101553 32.17970526 35.52513318 28.95724502 35.4765625 25.734375 C35.47330963 24.73525085 35.47005676 23.73612671 35.46670532 22.70672607 C35.37622136 17.58692891 35.18427957 14.23231047 32 10 C32 9.34 32 8.68 32 8 C24.70271128 7.51709119 19.14782164 7.77818765 13 12 C10.51072892 14.48927108 10.73403625 15.2876435 10.68115234 18.72509766 C10.66128265 19.70596344 10.64141296 20.68682922 10.62094116 21.69741821 C10.60361435 23.28965714 10.60361435 23.28965714 10.5859375 24.9140625 C10.56657135 25.99883881 10.5472052 27.08361511 10.5272522 28.20126343 C10.46733574 31.67576159 10.42102261 35.15029267 10.375 38.625 C10.33683135 40.97657718 10.29778029 43.32814021 10.2578125 45.6796875 C10.16162441 51.4529997 10.07661247 57.22639666 10 63 C8.18757948 63.02687279 6.37504767 63.04633715 4.5625 63.0625 C3.55316406 63.07410156 2.54382813 63.08570313 1.50390625 63.09765625 C-1 63 -1 63 -2 62 C-2.10649822 60.63065139 -2.14617465 59.25600358 -2.15771484 57.88256836 C-2.16797699 57.00753159 -2.17823914 56.13249481 -2.18881226 55.23094177 C-2.19611359 54.27687943 -2.20341492 53.32281708 -2.2109375 52.33984375 C-2.2390268 50.32876819 -2.26769137 48.3177006 -2.296875 46.30664062 C-2.33800223 43.12931719 -2.37487796 39.9521392 -2.40136719 36.7746582 C-2.42912235 33.7127374 -2.47501841 30.65149849 -2.5234375 27.58984375 C-2.52669037 26.64995102 -2.52994324 25.71005829 -2.53329468 24.74168396 C-2.63473337 19.24860903 -2.83615799 12.16384201 -7 8 C-15.11296003 6.91708849 -20.41399685 9.60933123 -27 14 C-27.47572817 16.17415043 -27.47572817 16.17415043 -27.43237305 18.72509766 C-27.45216721 19.70596344 -27.47196136 20.68682922 -27.49235535 21.69741821 C-27.50194023 23.28965714 -27.50194023 23.28965714 -27.51171875 24.9140625 C-27.52966995 25.99883881 -27.54762115 27.08361511 -27.56611633 28.20126343 C-27.6204231 31.67580239 -27.65418068 35.15020242 -27.6875 38.625 C-27.72065504 40.97658192 -27.75514298 43.32814546 -27.79101562 45.6796875 C-27.87616106 51.45300041 -27.94442432 57.22633087 -28 63 C-29.81242052 63.02687279 -31.62495233 63.04633715 -33.4375 63.0625 C-34.44683594 63.07410156 -35.45617187 63.08570313 -36.49609375 63.09765625 C-39 63 -39 63 -40 62 C-40.11462769 60.23662321 -40.15963021 58.46867329 -40.17700195 56.70166016 C-40.18983719 55.5702359 -40.20267242 54.43881165 -40.21589661 53.27310181 C-40.22328354 52.04086884 -40.23067047 50.80863586 -40.23828125 49.5390625 C-40.246353 48.28241791 -40.25442474 47.02577332 -40.26274109 45.73104858 C-40.27660174 43.06610405 -40.28761253 40.4012841 -40.29516602 37.73632812 C-40.30623375 34.32066282 -40.34063214 30.90564846 -40.38033772 27.49021339 C-40.41274746 24.23572726 -40.4172782 20.98118544 -40.42578125 17.7265625 C-40.44328934 16.49837799 -40.46079742 15.27019348 -40.47883606 14.00479126 C-40.47591049 12.86706268 -40.47298492 11.72933411 -40.4699707 10.55712891 C-40.47583694 9.55420807 -40.48170319 8.55128723 -40.48774719 7.51797485 C-40 5 -40 5 -38.16593933 3.19955444 C-35.4381366 1.6888252 -33.09376613 1.26902314 -30 1 C-29.34 1.33 -28.68 1.66 -28 2 C-27.59270772 4.32156597 -27.25561323 6.6568787 -27 9 C-26.34773437 8.51789063 -25.69546875 8.03578125 -25.0234375 7.5390625 C-16.89134258 1.66188476 -10.24703519 -1.52214765 0 0 Z " fill="#DF8E23" transform="translate(949,285)"/>
<path d="M0 0 C0.33 0 0.66 0 1 0 C1.21914063 0.76441406 1.43828125 1.52882813 1.6640625 2.31640625 C3.87174277 9.77405788 6.49287774 16.92859102 9.43359375 24.12890625 C11.00290472 27.97784788 12.48345543 31.85624106 13.9375 35.75 C14.30029053 36.71860962 14.30029053 36.71860962 14.67041016 37.70678711 C16.09181793 41.5174783 17.48512983 45.33751572 18.86328125 49.1640625 C19.17724854 50.03063477 19.49121582 50.89720703 19.81469727 51.79003906 C20.42816983 53.48553567 21.03690015 55.18275726 21.64038086 56.88183594 C21.91889893 57.65043945 22.19741699 58.41904297 22.484375 59.2109375 C22.72897461 59.89462402 22.97357422 60.57831055 23.22558594 61.28271484 C23.97177754 63.20772005 23.97177754 63.20772005 26 65 C26.495 68.465 26.495 68.465 27 72 C9.51 72 -7.98 72 -26 72 C-27.36945721 67.89162837 -25.86334792 65.27501296 -24.3515625 61.421875 C-24.06351242 60.66639374 -23.77546234 59.91091248 -23.47868347 59.13253784 C-22.5364291 56.66814148 -21.58095671 54.20910986 -20.625 51.75 C-19.97672327 50.06327036 -19.32918281 48.37625756 -18.68237305 46.68896484 C-17.08891457 42.53959747 -15.48437241 38.39463882 -13.87457275 34.25158691 C-13.08045942 32.20714271 -12.28842664 30.16191226 -11.49755859 28.11621094 C-2.73830088 5.47660176 -2.73830088 5.47660176 0 0 Z " fill="#0F0F1D" transform="translate(432,280)"/>
<path d="M0 0 C0.66 0 1.32 0 2 0 C6.06796162 9.96790443 10.06056966 19.9354691 13.56005859 30.1184082 C16.35143425 38.16067369 19.46922288 46.07879623 22.57373047 54.00439453 C22.98768066 55.06770996 23.40163086 56.13102539 23.828125 57.2265625 C24.1984082 58.17096191 24.56869141 59.11536133 24.95019531 60.08837891 C26.12266352 63.34020585 27.05036014 66.6762605 28 70 C10.51 70 -6.98 70 -25 70 C-26.43998465 65.68004604 -24.51881334 62.81084616 -22.8125 58.8125 C-18.68626836 48.84656968 -14.87717217 38.78011513 -11.12612915 28.66885376 C-7.55805096 19.05345615 -3.85124443 9.50568741 0 0 Z " fill="#0F0F1D" transform="translate(310,282)"/>
<path d="M0 0 C2.06503817 2.56349566 2.90968386 4.36778701 3.375 7.625 C3 10 3 10 1.9375 11.875 C-1.14310296 13.6637372 -3.63416459 12.73436409 -7 12 C-7.66 11.67 -8.32 11.34 -9 11 C-9 10.01 -9 9.02 -9 8 C-9.66 8 -10.32 8 -11 8 C-12.15362085 12.95006339 -12.15362085 12.95006339 -10.625 17.625 C-7.85672122 23.37450207 -7.11379287 30.14936763 -8.5546875 36.41015625 C-10.85959528 41.70328518 -14.95964803 45.30379809 -20 48 C-27.28764252 50.47228535 -34.3859416 51.3100309 -42 50 C-48.20463363 46.38389873 -52.23177333 41.60247852 -55 35 C-55.98567006 28.83473038 -55.32521695 22.36038318 -52 17 C-46.70159929 10.9342447 -40.92971437 7.38349095 -32.88671875 6.7578125 C-26.57829879 6.62684184 -21.01841775 7.11186894 -15 9 C-14.773125 8.443125 -14.54625 7.88625 -14.3125 7.3125 C-11.01176902 1.49692637 -6.74736713 -2.3615785 0 0 Z " fill="#DF8E23" transform="translate(796,277)"/>
<path d="M0 0 C5.98666567 7.14537515 6.08515191 14.34599622 6.03515625 23.20703125 C6.0337413 24.15438644 6.03232635 25.10174164 6.03086853 26.07780457 C6.02528611 29.09356895 6.01273682 32.10925818 6 35.125 C5.99498273 37.17382705 5.99042022 39.22265527 5.98632812 41.27148438 C5.97532243 46.28518506 5.95806988 51.2988298 5.9375 56.3125 C2.6375 56.3125 -0.6625 56.3125 -4.0625 56.3125 C-4.0625 55.6525 -4.0625 54.9925 -4.0625 54.3125 C-4.81273437 54.87839844 -5.56296875 55.44429688 -6.3359375 56.02734375 C-12.66659564 60.56404965 -18.02930098 64.36736452 -26.0625 63.3125 C-31.25332659 61.74986362 -35.42245873 59.15257566 -38.0625 54.3125 C-38.82381296 49.51037211 -38.18196861 45.69318513 -36.0625 41.3125 C-30.71752416 34.48152872 -25.16462381 31.01320794 -17.0625 28.3125 C-15.72413355 27.65599603 -14.39144765 26.98786684 -13.0625 26.3125 C-10.73837402 25.28978403 -8.40112305 24.30191744 -6.0625 23.3125 C-6.17687651 20.58251324 -6.30361406 17.8540418 -6.4375 15.125 C-6.4684375 14.35607422 -6.499375 13.58714844 -6.53125 12.79492188 C-6.56992187 12.04404297 -6.60859375 11.29316406 -6.6484375 10.51953125 C-6.69556885 9.49049683 -6.69556885 9.49049683 -6.74365234 8.44067383 C-7.06228436 5.75788159 -7.06228436 5.75788159 -9.0625 1.3125 C-13.6825 1.6425 -18.3025 1.9725 -23.0625 2.3125 C-23.18625 4.230625 -23.31 6.14875 -23.4375 8.125 C-23.8125 13.9375 -23.8125 13.9375 -26.0625 17.3125 C-29.5625 17.625 -29.5625 17.625 -33.0625 17.3125 C-35.0625 15.3125 -35.0625 15.3125 -35.21484375 13.32421875 C-35.14394531 12.55722656 -35.07304688 11.79023438 -35 11 C-34.94714844 10.24074219 -34.89429688 9.48148437 -34.83984375 8.69921875 C-33.70432198 5.21276748 -31.86990272 3.63149156 -29.0625 1.3125 C-20.04183481 -2.71920804 -9.02724039 -4.97419369 0 0 Z " fill="#DE8E23" transform="translate(892.0625,284.6875)"/>
<path d="M0 0 C4.99470813 2.36591438 7.11052861 4.82881516 9 10 C9.92616523 15.88097013 10.13446295 21.58615947 10.09765625 27.53125 C10.0962413 28.40777222 10.09482635 29.28429443 10.09336853 30.18737793 C10.08781768 32.95828821 10.07527461 35.72911457 10.0625 38.5 C10.05747864 40.39062382 10.05291685 42.28124893 10.04882812 44.171875 C10.0378644 48.78128183 10.02063425 53.39062673 10 58 C5.66666667 58 1.33333333 58 -3 58 C-5.00966714 59.33977809 -7.00967563 60.694152 -9 62.0625 C-13.54475135 64.99765192 -17.66506928 65.72437591 -23 65 C-26.81810359 63.47275856 -30.44335279 61.26682699 -33 58 C-34.50394529 53.48816414 -34.94243396 49.3560849 -33.1640625 44.91015625 C-30.18882573 39.70848391 -26.23772626 35.91553122 -21 33 C-17.5625 32.25 -17.5625 32.25 -15 32 C-14.67 31.34 -14.34 30.68 -14 30 C-13.01 29.67 -12.02 29.34 -11 29 C-9.43180374 28.32559435 -7.86962901 27.6370797 -6.3125 26.9375 C-5.50425781 26.57527344 -4.69601562 26.21304687 -3.86328125 25.83984375 C-3.24839844 25.56269531 -2.63351562 25.28554688 -2 25 C-2.11437651 22.27001324 -2.24111406 19.5415418 -2.375 16.8125 C-2.4059375 16.04357422 -2.436875 15.27464844 -2.46875 14.48242188 C-2.68616111 10.26102289 -3.09743072 6.85927672 -5 3 C-10.4185766 2.77422598 -14.77487721 3.53329887 -20 5 C-19.97679687 5.75925781 -19.95359375 6.51851563 -19.9296875 7.30078125 C-19.90261719 8.79158203 -19.90261719 8.79158203 -19.875 10.3125 C-19.85179687 11.29863281 -19.82859375 12.28476562 -19.8046875 13.30078125 C-20 16 -20 16 -22 19 C-25.5 19.3125 -25.5 19.3125 -29 19 C-31 17 -31 17 -31.5 13.8125 C-30.92580604 9.43427109 -29.88492344 7.59473444 -26.91796875 4.4375 C-24.15509095 2.36674841 -21.52838012 1.84330749 -18.1484375 1.38671875 C-15.96158402 1.11136844 -15.96158402 1.11136844 -14.09375 -0.05078125 C-9.71769073 -2.03470364 -4.59322959 -0.84239954 0 0 Z " fill="#DF8E23" transform="translate(621,283)"/>
<path d="M0 0 C2.97 0 5.94 0 9 0 C12.4554714 6.60893125 15.37311202 13.25092168 17.9375 20.25 C21.05820369 28.61381344 24.37941201 36.83996267 28 45 C28.66 45 29.32 45 30 45 C30.23187012 44.47567383 30.46374023 43.95134766 30.70263672 43.41113281 C31.75910537 41.02365093 32.81703813 38.63682055 33.875 36.25 C34.23980469 35.425 34.60460937 34.6 34.98046875 33.75 C35.33496094 32.95078125 35.68945312 32.1515625 36.0546875 31.328125 C36.37937012 30.5949707 36.70405273 29.86181641 37.03857422 29.10644531 C37.6930718 27.67246738 38.38990938 26.25723874 39.12255859 24.86157227 C40.20256877 22.57023181 40.01609741 21.18438068 39.75 18.6875 C39.61852097 14.71683343 40.39504579 12.93198008 43 9.9375 C43.97938366 8.93771252 44.97288882 7.95068922 46 7 C46.99 7.33 47.98 7.66 49 8 C50.09710383 10.42000937 50.99818521 12.73925951 51.84765625 15.24609375 C52.23370277 16.33556053 52.23370277 16.33556053 52.62754822 17.44703674 C53.45029924 19.77346256 54.25730221 22.10494639 55.0625 24.4375 C55.87329358 26.76568044 56.68741893 29.09255991 57.50816345 31.41725159 C58.01865409 32.86519397 58.52305282 34.3153013 59.02076721 35.76768494 C60.4086161 39.73827039 60.4086161 39.73827039 63 43 C65.5347025 41.73264875 65.62456995 40.90225133 66.62890625 38.30078125 C66.93763672 37.51348633 67.24636719 36.72619141 67.56445312 35.91503906 C67.89380859 35.05620117 68.22316406 34.19736328 68.5625 33.3125 C69.2711745 31.50092589 69.98084906 29.68974274 70.69140625 27.87890625 C71.06410645 26.92516113 71.43680664 25.97141602 71.82080078 24.98876953 C73.83263177 19.88963186 75.91732355 14.82052093 78 9.75 C78.39775635 8.77973877 78.7955127 7.80947754 79.20532227 6.80981445 C80.13612299 4.53956379 81.06767057 2.26962318 82 0 C83.65 0.33 85.3 0.66 87 1 C85.97949371 6.10253143 84.38807381 10.59218648 82.29296875 15.359375 C79.01736265 22.88714681 75.96316182 30.49405272 72.9375 38.125 C69.36751588 47.11564801 65.75379457 56.0840907 62 65 C58.95110114 63.9711033 58.10365832 63.19777456 56.58374023 60.29785156 C56.16294189 59.1734668 55.74214355 58.04908203 55.30859375 56.890625 C54.60379883 55.04597656 54.60379883 55.04597656 53.88476562 53.1640625 C53.40172381 51.8596044 52.91930715 50.55491463 52.4375 49.25 C51.71416313 47.32657602 50.98684571 45.40473228 50.2568512 43.48382568 C49.59312771 41.73178483 48.93970915 39.97585038 48.28686523 38.21972656 C47.01832688 35.0458537 45.57244611 32.03316804 44 29 C37.93662345 40.82936679 32.37326812 52.84260566 27 65 C24.66236843 64.05450257 23.28012671 63.44484399 21.91674805 61.27978516 C21.63871338 60.58159668 21.36067871 59.8834082 21.07421875 59.1640625 C20.57801025 57.95218262 20.57801025 57.95218262 20.07177734 56.71582031 C19.71809082 55.81959961 19.3644043 54.92337891 19 54 C18.17379158 52.00755757 17.34693144 50.01538531 16.51953125 48.0234375 C14.14696121 42.21378339 11.79329986 36.39648531 9.44580078 30.57666016 C8.50068303 28.23860291 7.55131431 25.90225837 6.59716797 23.56787109 C5.30408229 20.40361988 4.02528383 17.23395981 2.75 14.0625 C2.35530518 13.10456543 1.96061035 12.14663086 1.55395508 11.15966797 C1.20099365 10.2729541 0.84803223 9.38624023 0.484375 8.47265625 C0.17209961 7.70187744 -0.14017578 6.93109863 -0.46191406 6.13696289 C-1 4 -1 4 0 0 Z " fill="#E08F24" transform="translate(644,283)"/>
<path d="M0 0 C0.89589844 -0.01417969 1.79179688 -0.02835938 2.71484375 -0.04296875 C5.0625 0.1875 5.0625 0.1875 7.0625 2.1875 C7.25918145 4.94212589 7.33204814 7.59757514 7.31787109 10.35327148 C7.32149155 11.1973053 7.325112 12.04133911 7.32884216 12.91094971 C7.33574557 14.74705866 7.33823984 16.58318818 7.33689499 18.41930962 C7.33593271 21.32306264 7.34883597 24.22644247 7.36587524 27.13014221 C7.41224223 35.3869436 7.4367631 43.64370776 7.44335938 51.90063477 C7.44836429 56.9475668 7.47256265 61.99411014 7.50868607 67.04091072 C7.51850854 68.96704847 7.52080274 70.89323953 7.51551437 72.81939507 C7.50847159 75.51079944 7.52566778 78.20103972 7.54833984 80.89233398 C7.54016739 81.69192032 7.53199493 82.49150665 7.52357483 83.31532288 C7.56459957 87.68104982 7.56459957 87.68104982 9.94322205 91.1816864 C12.50398785 92.39703103 14.33552882 92.5751119 17.16796875 92.5859375 C18.15216797 92.58980469 19.13636719 92.59367187 20.15039062 92.59765625 C21.68469727 92.58025391 21.68469727 92.58025391 23.25 92.5625 C24.25353516 92.57410156 25.25707031 92.58570313 26.29101562 92.59765625 C32.53870654 92.57326709 38.41698744 92.08349008 44.0625 89.1875 C45.64862501 86.93053573 45.64862501 86.93053573 46.0625 84.1875 C46.413125 83.259375 46.76375 82.33125 47.125 81.375 C48.22966893 77.61912562 48.65991933 74.07911318 49.0625 70.1875 C51.0425 69.6925 51.0425 69.6925 53.0625 69.1875 C52.63950456 85.62087283 52.63950456 85.62087283 48.0625 91.1875 C43.44236496 94.93184491 39.75529116 95.78704382 33.953125 95.796875 C33.1862738 95.81341125 32.41942261 95.82994751 31.6293335 95.84698486 C29.19030849 95.89524865 26.75189785 95.91672889 24.3125 95.9375 C22.69007278 95.9656964 21.06767475 95.99562889 19.4453125 96.02734375 C15.64103647 96.09745165 11.83726024 96.13785603 8.0324707 96.16625977 C6.27595631 96.18519851 4.51971936 96.22677742 2.76367188 96.27148438 C0.53025782 96.31804728 -1.70499068 96.26629445 -3.9375 96.1875 C-6.57643543 93.54856457 -6.17823181 91.63891622 -6.19744873 88.04786682 C-6.19182922 87.18700974 -6.18620972 86.32615265 -6.18041992 85.43920898 C-6.18231827 84.53344116 -6.18421661 83.62767334 -6.18617249 82.69445801 C-6.1898871 79.69074946 -6.17916708 76.68728093 -6.16796875 73.68359375 C-6.16677732 71.60376514 -6.16632371 69.52393599 -6.1665802 67.44410706 C-6.1650142 63.08192586 -6.15671501 58.7198266 -6.14331055 54.35766602 C-6.12631002 48.75278487 -6.12249643 43.14799378 -6.12325573 37.54308987 C-6.12298444 33.24786003 -6.11751009 28.95265008 -6.11025429 24.65742683 C-6.10706165 22.59005954 -6.10509883 20.52268999 -6.10436058 18.45532036 C-6.1022039 15.5723063 -6.09347461 12.68938976 -6.08276367 9.80639648 C-6.08321686 8.94351517 -6.08367004 8.08063385 -6.08413696 7.19160461 C-6.04510098 0.04336514 -6.04510098 0.04336514 0 0 Z " fill="#E08F24" transform="translate(521.9375,252.8125)"/>
<path d="M0 0 C2.97637795 4.46456693 2.97637795 4.46456693 4 7 C3.38156277 9.58619207 2.87881098 11.12118902 1 13 C-2.71322483 13.53046069 -3.86959806 13.09236804 -7 10.875 C-9.79451538 8.66799348 -9.79451538 8.66799348 -12.625 9.4375 C-15.64817514 11.42643101 -17.08372289 12.88122186 -19 16 C-19.61265861 19.585386 -19.60492386 23.1385129 -19.609375 26.76953125 C-19.62591125 27.80567062 -19.64244751 28.84181 -19.65948486 29.90934753 C-19.70797089 33.21045863 -19.72933778 36.51110899 -19.75 39.8125 C-19.77815908 42.05405964 -19.80808641 44.29559782 -19.83984375 46.53710938 C-19.91372986 52.02465593 -19.96536891 57.51207288 -20 63 C-21.81242052 63.02687279 -23.62495233 63.04633715 -25.4375 63.0625 C-26.44683594 63.07410156 -27.45617187 63.08570313 -28.49609375 63.09765625 C-31 63 -31 63 -32 62 C-32.10939667 60.23645999 -32.14908451 58.4685489 -32.16113281 56.70166016 C-32.17074036 55.5702359 -32.1803479 54.43881165 -32.19024658 53.27310181 C-32.19449646 52.04086884 -32.19874634 50.80863586 -32.203125 49.5390625 C-32.20882507 48.28241791 -32.21452515 47.02577332 -32.22039795 45.73104858 C-32.22986577 43.06610487 -32.23675333 40.40127427 -32.24023438 37.73632812 C-32.24571728 34.32078182 -32.26973667 30.90563457 -32.29820633 27.49021339 C-32.32130817 24.23569314 -32.32328105 20.9811533 -32.328125 17.7265625 C-32.3404718 16.49837799 -32.3528186 15.27019348 -32.36553955 14.00479126 C-32.36253845 12.86706268 -32.35953735 11.72933411 -32.35644531 10.55712891 C-32.36009094 9.55420807 -32.36373657 8.55128723 -32.36749268 7.51797485 C-32 5 -32 5 -30.60540771 3.18466187 C-27.70044315 1.04103149 -24.52690495 1.28909057 -21 1 C-20.01 3.97 -19.02 6.94 -18 10 C-17.13375 8.6078125 -17.13375 8.6078125 -16.25 7.1875 C-11.70673187 0.75120349 -7.70967108 -0.14546549 0 0 Z " fill="#DF8F24" transform="translate(842,285)"/>
<path d="M0 0 C0.94794434 0.09893555 1.89588867 0.19787109 2.87255859 0.29980469 C3.84757324 0.37682617 4.82258789 0.45384766 5.82714844 0.53320312 C8.72177727 0.77422373 11.60809632 1.06653697 14.49755859 1.36230469 C16.04424347 1.48580306 17.59110426 1.60713128 19.13818359 1.72558594 C28.74855095 2.62662889 28.74855095 2.62662889 31.91162109 5.73339844 C33.49755859 8.36230469 33.49755859 8.36230469 33.24755859 11.67480469 C33.00005859 12.56167969 32.75255859 13.44855469 32.49755859 14.36230469 C31.87107422 14.56726563 31.24458984 14.77222656 30.59912109 14.98339844 C29.37322266 15.38751953 29.37322266 15.38751953 28.12255859 15.79980469 C27.31044922 16.06664062 26.49833984 16.33347656 25.66162109 16.60839844 C23.48724061 17.31410198 23.48724061 17.31410198 21.49755859 18.36230469 C22.81755859 19.02230469 24.13755859 19.68230469 25.49755859 20.36230469 C18.92531914 21.95213367 12.48828165 22.5983309 5.74755859 22.67480469 C5.03929932 22.69220703 4.33104004 22.70960938 3.60131836 22.72753906 C-2.57667582 22.72176051 -7.30014885 21.34436799 -12.00244141 17.11230469 C-14.07880749 13.30563353 -13.71418434 11.49648647 -12.50244141 7.36230469 C-9.6965717 1.0176336 -6.83007614 -0.43260815 0 0 Z " fill="#10101D" transform="translate(758.50244140625,347.6376953125)"/>
<path d="M0 0 C5.77613917 3.08956281 7.73557158 8.93220067 9.59375 14.91015625 C10.11798209 17.6069271 10.20843697 20.1908763 10.25 22.9375 C10.27578125 23.95714844 10.3015625 24.97679687 10.328125 26.02734375 C9.95299808 29.42581503 9.0156503 31.2651735 7 34 C3.27994615 35.86002693 -0.94008862 35.43031319 -5 35 C-8.39051603 33.5205021 -10.26570329 32.41077478 -11.9921875 29.09375 C-12.78263724 27.07622113 -13.43245309 25.09053249 -14 23 C-14.27650391 22.03707031 -14.27650391 22.03707031 -14.55859375 21.0546875 C-15.686666 15.8036609 -15.56138932 10.62507435 -13.8125 5.5625 C-10.11647981 0.33709214 -6.29210879 -0.7865136 0 0 Z " fill="#0F0F1D" transform="translate(767,288)"/>
<path d="M0 0 C0.14539953 3.41621788 0.23409725 6.83163991 0.3125 10.25 C0.35439453 11.21808594 0.39628906 12.18617188 0.43945312 13.18359375 C0.5636291 20.38580058 0.5636291 20.38580058 -2.39453125 23.609375 C-7.16177104 26.15380883 -10.59976394 26.60519887 -16 26 C-19.0625 24.75 -19.0625 24.75 -21 22 C-21.71433489 16.55889591 -22.18373439 10.71893317 -19 6 C-13.33088735 1.37788563 -7.28381838 -1.6893562 0 0 Z " fill="#0F0F1E" transform="translate(620,314)"/>
<path d="M0 0 C0.14533755 3.582906 0.23407931 7.16505417 0.3125 10.75 C0.35439453 11.76578125 0.39628906 12.7815625 0.43945312 13.828125 C0.5633233 21.3594317 0.5633233 21.3594317 -2.3359375 24.65625 C-5.3419046 26.17245628 -7.64685112 26.72627356 -11 27 C-12.03125 27.12375 -13.0625 27.2475 -14.125 27.375 C-17 27 -17 27 -19.375 25.125 C-21.67430803 20.70325379 -21.66160502 16.88942247 -21 12 C-19.03587417 7.24474799 -15.71564742 4.28896855 -11.07421875 2.0859375 C-7.17334131 0.51383247 -4.22756811 -0.05745871 0 0 Z " fill="#0F0F1D" transform="translate(887,313)"/>
<path d="M0 0 C6.97609001 -0.78762307 6.97609001 -0.78762307 10.4375 1.875 C12.93139916 5.26670286 13.41345274 7.76009955 13.3359375 12.0234375 C13 14 13 14 11 16.5 C6.94084495 18.52957752 4.50969701 18.44357676 0 18 C-2 16 -2 16 -2.265625 13.06640625 C-2.26046875 11.91011719 -2.2553125 10.75382812 -2.25 9.5625 C-2.25515625 8.40878906 -2.2603125 7.25507813 -2.265625 6.06640625 C-2 3 -2 3 0 0 Z " fill="#DE8D23" transform="translate(518,384)"/>
<path d="M0 0 C2.5 2.6875 2.5 2.6875 4 6 C3.1875 8.5625 3.1875 8.5625 2 11 C2.31136156 13.67770941 2.79778366 15.59556732 4 18 C-0.37859255 17.49477778 -2.81651224 14.82172778 -6 12 C-6.33 13.98 -6.66 15.96 -7 18 C-8.48828125 16.91796875 -8.48828125 16.91796875 -10 15 C-10.29296875 11.86328125 -10.29296875 11.86328125 -10.1875 8.3125 C-10.16042969 7.13300781 -10.13335938 5.95351563 -10.10546875 4.73828125 C-10.07066406 3.83464844 -10.03585937 2.93101562 -10 2 C-6.43391365 0.09398833 -4.09166154 -0.68194359 0 0 Z " fill="#DE8F26" transform="translate(971,384)"/>
<path d="M0 0 C-0.99 1.485 -0.99 1.485 -2 3 C-2.66 3 -3.32 3 -4 3 C-3.97679687 3.75925781 -3.95359375 4.51851563 -3.9296875 5.30078125 C-3.90261719 6.79158203 -3.90261719 6.79158203 -3.875 8.3125 C-3.85179687 9.29863281 -3.82859375 10.28476562 -3.8046875 11.30078125 C-4 14 -4 14 -6 17 C-9.5 17.3125 -9.5 17.3125 -13 17 C-15 15 -15 15 -15.5 11.8125 C-14.83797675 6.76457273 -12.84754548 4.23682397 -9 1 C-5.25298309 -0.76330208 -3.94372453 -1.31457484 0 0 Z " fill="#E08F24" transform="translate(605,285)"/>
<path d="M0 0 C2.38671875 0.31640625 2.38671875 0.31640625 5 1 C8 5.86206897 8 5.86206897 8 9 C8.66 9 9.32 9 10 9 C10.12375 8.2575 10.2475 7.515 10.375 6.75 C10.95486701 4.19858515 11.73708739 2.2732427 13 0 C14.32 0.33 15.64 0.66 17 1 C17.33 2.65 17.66 4.3 18 6 C17.01 6.33 16.02 6.66 15 7 C14.67 7.66 14.34 8.32 14 9 C13.34 9 12.68 9 12 9 C11.67 11.31 11.34 13.62 11 16 C9.35 15.67 7.7 15.34 6 15 C5.34 13.02 4.68 11.04 4 9 C3.67 11.31 3.34 13.62 3 16 C2.34 16 1.68 16 1 16 C-0.50156874 12.99686252 -0.09281204 10.20932478 -0.0625 6.875 C-0.05347656 5.59367187 -0.04445313 4.31234375 -0.03515625 2.9921875 C-0.02355469 2.00476563 -0.01195312 1.01734375 0 0 Z " fill="#DE8E23" transform="translate(850,385)"/>
<path d="M0 0 C0.28875 0.639375 0.5775 1.27875 0.875 1.9375 C1.82823451 4.15206079 1.82823451 4.15206079 4 5 C3.01 5.33 2.02 5.66 1 6 C0.67 5.67 0.34 5.34 0 5 C-1.99958364 4.95919217 -4.00045254 4.95745644 -6 5 C-6.66 6.98 -7.32 8.96 -8 11 C-5.525 11.99 -5.525 11.99 -3 13 C-2.67 11.68 -2.34 10.36 -2 9 C-0.02 9 1.96 9 4 9 C4.33 10.65 4.66 12.3 5 14 C2.33545168 16.50781019 0.65220595 17.89129901 -3 18.5 C-6.69203416 17.88466097 -8.34016868 16.58383614 -11 14 C-12.42662219 11.14675563 -12.31033868 9.16545451 -12 6 C-8.65371733 0.8074924 -6.02608013 -0.16286703 0 0 Z " fill="#D48723" transform="translate(705,384)"/>
<path d="M0 0 C3.25 1.0625 3.25 1.0625 4.6875 3.125 C4.9659375 4.0840625 4.9659375 4.0840625 5.25 5.0625 C2.25 5.0625 2.25 5.0625 -0.75 4.8125 C-3.82425843 4.7564591 -3.82425843 4.7564591 -5.6875 6.875 C-7.10844018 9.15206772 -7.10844018 9.15206772 -5.75 12.0625 C-4.1 12.3925 -2.45 12.7225 -0.75 13.0625 C-0.75 11.7425 -0.75 10.4225 -0.75 9.0625 C5 8.9375 5 8.9375 7.25 10.0625 C5.625 15.8125 5.625 15.8125 2.25 18.0625 C-0.90900044 18.63686372 -2.89952831 18.53386597 -5.73046875 16.96484375 C-7.74154601 15.4595464 -9.26486266 14.09011266 -10.75 12.0625 C-11.0625 8.5 -11.0625 8.5 -9.75 5.0625 C-6.50786113 1.35719843 -4.97230854 0.08287181 0 0 Z " fill="#D68925" transform="translate(778.75,383.9375)"/>
<path d="M0 0 C1.65 0 3.3 0 5 0 C6.625 2.375 6.625 2.375 8 5 C8.99 5.66 9.98 6.32 11 7 C11.33 4.69 11.66 2.38 12 0 C12.99 0 13.98 0 15 0 C15 5.28 15 10.56 15 16 C12 16 12 16 9.5 13.8125 C7.26899331 11.30261747 5.59618071 8.94033289 4 6 C3.67 9.3 3.34 12.6 3 16 C2.01 15.67 1.02 15.34 0 15 C0 10.05 0 5.1 0 0 Z " fill="#DF8E23" transform="translate(671,385)"/>
<path d="M0 0 C1.36511719 0.29197266 1.36511719 0.29197266 2.7578125 0.58984375 C3.45648437 0.74582031 4.15515625 0.90179688 4.875 1.0625 C4.875 1.3925 4.875 1.7225 4.875 2.0625 C2.235 2.3925 -0.405 2.7225 -3.125 3.0625 C-2.23164203 5.42035318 -2.23164203 5.42035318 0.9375 6.1875 C2.3915625 6.620625 2.3915625 6.620625 3.875 7.0625 C3.875 8.0525 3.875 9.0425 3.875 10.0625 C1.565 10.0625 -0.745 10.0625 -3.125 10.0625 C-2.795 11.3825 -2.465 12.7025 -2.125 14.0625 C-1.361875 13.85625 -0.59875 13.65 0.1875 13.4375 C2.875 13.0625 2.875 13.0625 5.875 15.0625 C5.875 15.7225 5.875 16.3825 5.875 17.0625 C4.08366022 17.11641993 2.29186101 17.15525571 0.5 17.1875 C-0.49773438 17.21070313 -1.49546875 17.23390625 -2.5234375 17.2578125 C-5.125 17.0625 -5.125 17.0625 -7.125 15.0625 C-7.26997985 12.48185871 -7.31177545 10.01306116 -7.25 7.4375 C-7.24097656 6.73109375 -7.23195313 6.0246875 -7.22265625 5.296875 C-7.19907603 3.55193902 -7.16320461 1.80717705 -7.125 0.0625 C-4.4030754 -1.2984623 -2.9418043 -0.64116248 0 0 Z " fill="#E08F24" transform="translate(947.125,384.9375)"/>
<path d="M0 0 C1.89453125 0.10546875 1.89453125 0.10546875 4 1 C5.44921875 3.36328125 5.44921875 3.36328125 6.6875 6.3125 C7.10386719 7.27800781 7.52023437 8.24351562 7.94921875 9.23828125 C8.80820649 11.49591817 9.49079745 13.64423876 10 16 C9.360625 15.690625 8.72125 15.38125 8.0625 15.0625 C4.07950896 13.68064597 0.18349151 13.3463457 -4 13 C-4 13.99 -4 14.98 -4 16 C-4.66 16 -5.32 16 -6 16 C-6.6796875 14.35546875 -6.6796875 14.35546875 -7 12 C-5.8203125 9.23828125 -5.8203125 9.23828125 -4.125 6.3125 C-3.57070313 5.33925781 -3.01640625 4.36601562 -2.4453125 3.36328125 C-1 1 -1 1 0 0 Z " fill="#CA8123" transform="translate(800,385)"/>
<path d="M0 0 C1.32 0 2.64 0 4 0 C4.98669759 1.89192475 5.9640602 3.78871978 6.9375 5.6875 C7.48277344 6.74324219 8.02804687 7.79898437 8.58984375 8.88671875 C9.8470576 11.66234047 10.56069569 14.00272126 11 17 C10.34 16.505 9.68 16.01 9 15.5 C4.92599581 13.4629979 2.53276656 13.56134517 -2 14 C-4.009245 15.33358994 -4.009245 15.33358994 -5 17 C-6.30230734 13.99353048 -5.96485975 12.90644333 -4.78515625 9.765625 C-4.21667969 8.60546875 -3.64820313 7.4453125 -3.0625 6.25 C-2.21365234 4.49429687 -2.21365234 4.49429687 -1.34765625 2.703125 C-0.90292969 1.81109375 -0.45820312 0.9190625 0 0 Z " fill="#C98123" transform="translate(882,385)"/>
<path d="M0 0 C3 1 3 1 4 3 C4.22467831 4.53668865 4.40796805 6.07968054 4.5625 7.625 C4.64628906 8.44226563 4.73007812 9.25953125 4.81640625 10.1015625 C4.87699219 10.72804688 4.93757812 11.35453125 5 12 C7.475 12.99 7.475 12.99 10 14 C10.33 9.38 10.66 4.76 11 0 C12.32 0.66 13.64 1.32 15 2 C15.61619487 10.81500987 15.61619487 10.81500987 13.375 15.125 C11 17 11 17 8.0625 17.5 C4.54517877 16.92574347 2.75507088 16.26969765 0 14 C-0.48828125 10.64453125 -0.48828125 10.64453125 -0.3125 6.8125 C-0.24482422 4.90404297 -0.24482422 4.90404297 -0.17578125 2.95703125 C-0.11777344 1.98121094 -0.05976562 1.00539063 0 0 Z " fill="#DE8E23" transform="translate(595,385)"/>
<path d="M0 0 C1.8125 2.5 1.8125 2.5 3 5 C0.03 4.67 -2.94 4.34 -6 4 C-6 4.66 -6 5.32 -6 6 C-4.906875 6.2475 -3.81375 6.495 -2.6875 6.75 C1 8 1 8 3 9.875 C4 12 4 12 3.8125 14.125 C3 16 3 16 1 18 C-2.69133463 18.34179024 -5.13786716 18.46422538 -8.4375 16.6875 C-10 15 -10 15 -10 12 C-6.7 12.99 -3.4 13.98 0 15 C-2.90844433 11.08702954 -2.90844433 11.08702954 -6.6875 8.75 C-7.780625 8.1725 -8.87375 7.595 -10 7 C-9.1875 4.0625 -9.1875 4.0625 -8 1 C-4.95729435 -0.01423522 -3.15860793 -0.47379119 0 0 Z " fill="#DE8E23" transform="translate(648,384)"/>
<path d="M0 0 C1.2684375 -0.0309375 2.536875 -0.061875 3.84375 -0.09375 C4.91399414 -0.11985352 4.91399414 -0.11985352 6.00585938 -0.14648438 C8.70959662 0.05212512 10.11198982 1.11198982 12 3 C10.865625 3.12375 9.73125 3.2475 8.5625 3.375 C6.7990625 3.684375 6.7990625 3.684375 5 4 C4.67 4.66 4.34 5.32 4 6 C5.4540625 6.4021875 5.4540625 6.4021875 6.9375 6.8125 C7.948125 7.204375 8.95875 7.59625 10 8 C10.33 8.99 10.66 9.98 11 11 C9.865625 11.12375 8.73125 11.2475 7.5625 11.375 C5.7990625 11.684375 5.7990625 11.684375 4 12 C3.67 12.66 3.34 13.32 3 14 C6.3 14.66 9.6 15.32 13 16 C12.67 16.66 12.34 17.32 12 18 C8.37 18 4.74 18 1 18 C-0.59412284 14.81175432 -0.10174735 11.37103338 -0.0625 7.875 C-0.05798828 7.12089844 -0.05347656 6.36679687 -0.04882812 5.58984375 C-0.03703499 3.72652873 -0.01909942 1.86325445 0 0 Z " fill="#E08F24" transform="translate(749,384)"/>
<path d="M0 0 C1.8125 2.5 1.8125 2.5 3 5 C0.36 4.67 -2.28 4.34 -5 4 C-5.33 4.66 -5.66 5.32 -6 6 C-4.3603125 6.4021875 -4.3603125 6.4021875 -2.6875 6.8125 C2.51047324 8.48642358 2.51047324 8.48642358 4 11 C3.75546876 14.34192692 3.39456443 15.60543557 1 18 C-3.65620796 18.51735644 -6.19819614 17.68362626 -10 15 C-9.67 14.01 -9.34 13.02 -9 12 C-6.03 12.99 -3.06 13.98 0 15 C-2.23381518 10.53236964 -2.61606696 10.49695275 -7 9 C-7.99 8.34 -8.98 7.68 -10 7 C-9.1875 4.0625 -9.1875 4.0625 -8 1 C-4.95729435 -0.01423522 -3.15860793 -0.47379119 0 0 Z " fill="#DC8C23" transform="translate(627,384)"/>
<path d="M0 0 C0.33 1.32 0.66 2.64 1 4 C-1.64 3.34 -4.28 2.68 -7 2 C-7 2.99 -7 3.98 -7 5 C-5.88625 5.268125 -4.7725 5.53625 -3.625 5.8125 C0 7 0 7 2 10 C2.3125 12.5625 2.3125 12.5625 2 15 C-1.48868651 17.32579101 -2.89718519 17.41865457 -7 17 C-9.375 15.5 -9.375 15.5 -11 14 C-10.67 13.01 -10.34 12.02 -10 11 C-9.4225 11.350625 -8.845 11.70125 -8.25 12.0625 C-5.75979645 13.36283174 -5.75979645 13.36283174 -2 12 C-4.97 10.02 -7.94 8.04 -11 6 C-10.67 4.35 -10.34 2.7 -10 1 C-3.375 -1.125 -3.375 -1.125 0 0 Z " fill="#D48825" transform="translate(562,385)"/>
<path d="M0 0 C0.66 1.65 1.32 3.3 2 5 C-0.97 4.67 -3.94 4.34 -7 4 C-7.66 6.31 -8.32 8.62 -9 11 C-3.94990405 11.93786082 -3.94990405 11.93786082 1 11 C1 12.32 1 13.64 1 15 C-1.76621255 16.34937198 -3.86655727 17.32252436 -6.921875 16.453125 C-10.32144948 14.73928993 -11.73947647 13.72027093 -13.0625 10.0625 C-12.99534963 6.77213171 -12.65715849 4.84084313 -11 2 C-7.64048876 -0.61295319 -4.10655516 -0.15794443 0 0 Z " fill="#DC8C23" transform="translate(584,385)"/>
<path d="M0 0 C4.34161825 -0.04952706 8.68308575 -0.08577954 13.02490234 -0.10986328 C14.50116847 -0.11990591 15.97741479 -0.13354265 17.45361328 -0.15087891 C19.57850034 -0.17520421 21.70312385 -0.1865004 23.828125 -0.1953125 C25.1059082 -0.20578613 26.38369141 -0.21625977 27.70019531 -0.22705078 C30.77469299 -0.01550278 32.43738352 0.36873092 35 2 C28.42776054 3.58982898 21.99072306 4.23602621 15.25 4.3125 C14.54174072 4.32990234 13.83348145 4.34730469 13.10375977 4.36523438 C8.03914743 4.36049722 4.53684735 3.25060883 0 1 C0 0.67 0 0.34 0 0 Z " fill="#23191B" transform="translate(749,366)"/>
<path d="M0 0 C0.886875 0.10699219 1.77375 0.21398437 2.6875 0.32421875 C4.0178125 0.47310547 4.0178125 0.47310547 5.375 0.625 C7.6875 1.01171875 7.6875 1.01171875 9.6875 2.01171875 C9.6875 2.67171875 9.6875 3.33171875 9.6875 4.01171875 C8.0375 4.01171875 6.3875 4.01171875 4.6875 4.01171875 C4.6875 8.63171875 4.6875 13.25171875 4.6875 18.01171875 C3.3675 17.35171875 2.0475 16.69171875 0.6875 16.01171875 C0.15637137 12.89576414 0.18661252 9.91942101 0.15625 6.76171875 C0.0015625 5.85421875 -0.153125 4.94671875 -0.3125 4.01171875 C-2.23918778 2.56743491 -2.23918778 2.56743491 -4.3125 2.01171875 C-2.3125 0.01171875 -2.3125 0.01171875 0 0 Z " fill="#E08F24" transform="translate(902.3125,383.98828125)"/>
<path d="M0 0 C0 0.66 0 1.32 0 2 C-2.97 1.67 -5.94 1.34 -9 1 C-8.07390543 3.41557958 -8.07390543 3.41557958 -4.5625 4.3125 C-1 6 -1 6 0.4375 8.6875 C0.7159375 9.8321875 0.7159375 9.8321875 1 11 C0.34 11.66 -0.32 12.32 -1 13 C-2.5 11.625 -2.5 11.625 -4 10 C-4 9.34 -4 8.68 -4 8 C-4.928125 7.71125 -5.85625 7.4225 -6.8125 7.125 C-10 6 -10 6 -13 4 C-12.75 1.625 -12.75 1.625 -12 -1 C-7.6929626 -4.26740768 -4.32238568 -2.31556375 0 0 Z " fill="#DE902A" transform="translate(996,387)"/>
<path d="M0 0 C0.99 0.33 1.98 0.66 3 1 C3.33 5.29 3.66 9.58 4 14 C6.64 14.33 9.28 14.66 12 15 C11.67 15.66 11.34 16.32 11 17 C9.37536158 17.05395478 7.75021459 17.09277195 6.125 17.125 C5.22007812 17.14820313 4.31515625 17.17140625 3.3828125 17.1953125 C1 17 1 17 -1 15 C-1.23046875 11.77734375 -1.23046875 11.77734375 -1.1875 7.9375 C-1.18105469 6.66777344 -1.17460938 5.39804687 -1.16796875 4.08984375 C-1 1 -1 1 0 0 Z " fill="#E08F24" transform="translate(818,385)"/>
<path d="M0 0 C0.33 0.66 0.66 1.32 1 2 C1.66 2.33 2.32 2.66 3 3 C1.35 3.33 -0.3 3.66 -2 4 C-2 8.29 -2 12.58 -2 17 C-2.99 17 -3.98 17 -5 17 C-6.69302364 15.30697636 -6.2051527 13.00313451 -6.3125 10.6875 C-6.6486105 6.1378772 -6.6486105 6.1378772 -9.0625 2.3125 C-9.701875 1.879375 -10.34125 1.44625 -11 1 C-5.555 0.505 -5.555 0.505 0 0 Z " fill="#E09026" transform="translate(930,384)"/>
<path d="M0 0 C0.99 0.33 1.98 0.66 3 1 C3.33 4.96 3.66 8.92 4 13 C6.64 13.66 9.28 14.32 12 15 C12 15.66 12 16.32 12 17 C8.37 17 4.74 17 1 17 C-0.53266582 13.93466836 -0.10276471 10.73245728 -0.0625 7.375 C-0.05798828 6.66859375 -0.05347656 5.9621875 -0.04882812 5.234375 C-0.03703875 3.48954725 -0.01910324 1.744763 0 0 Z " fill="#E08F24" transform="translate(730,385)"/>
<path d="M0 0 C4.70588235 0.70588235 4.70588235 0.70588235 6 2 C6.14115161 4.67058851 6.04247107 7.32432238 6 10 C4.35 10.66 2.7 11.32 1 12 C-1.69461986 7.95807022 -1.23200889 5.7948504 -1 1 C-0.67 0.67 -0.34 0.34 0 0 Z " fill="#100F1D" transform="translate(521,388)"/>
<path d="M0 0 C1.485 0.99 1.485 0.99 3 2 C3.29296875 5.2578125 3.29296875 5.2578125 3.1875 9.125 C3.14689453 11.04699219 3.14689453 11.04699219 3.10546875 13.0078125 C3.07066406 13.99523437 3.03585937 14.98265625 3 16 C2.01 16 1.02 16 0 16 C-1 15 -1 15 -1.1328125 12.12890625 C-1.13023437 10.95199219 -1.12765625 9.77507812 -1.125 8.5625 C-1.12757813 7.38816406 -1.13015625 6.21382813 -1.1328125 5.00390625 C-1 2 -1 2 0 0 Z " fill="#E09027" transform="translate(540,385)"/>
<path d="M0 0 C3.3125 1 3.3125 1 4.75 3.0625 C5.0284375 4.0215625 5.0284375 4.0215625 5.3125 5 C2.3125 5 2.3125 5 -0.625 4.75 C-3.81155146 4.7122327 -3.81155146 4.7122327 -6.0625 7 C-6.59875 7.66 -7.135 8.32 -7.6875 9 C-8.3475 8.67 -9.0075 8.34 -9.6875 8 C-9.36837403 5.02149096 -8.62582742 3.93288572 -6.5625 1.6875 C-3.6875 0 -3.6875 0 0 0 Z " fill="#E08F24" transform="translate(778.6875,384)"/>
<path d="M0 0 C0.99 0.33 1.98 0.66 3 1 C3 5.95 3 10.9 3 16 C2.01 16 1.02 16 0 16 C-1 15 -1 15 -1.1328125 11.875 C-1.13023437 10.59625 -1.12765625 9.3175 -1.125 8 C-1.12757813 6.72125 -1.13015625 5.4425 -1.1328125 4.125 C-1 1 -1 1 0 0 Z " fill="#E08F24" transform="translate(660,385)"/>
<path d="M0 0 C0.99 0 1.98 0 3 0 C0.96192707 7.1178153 -1.40344742 14.06707281 -4 21 C-4.99 20.67 -5.98 20.34 -7 20 C-6.71125 19.34 -6.4225 18.68 -6.125 18 C-5.20541506 15.54777349 -4.5756063 13.28997702 -4 10.75 C-3.67 9.5125 -3.34 8.275 -3 7 C-2.34 6.67 -1.68 6.34 -1 6 C-0.34227572 2.97065509 -0.34227572 2.97065509 0 0 Z " fill="#D38723" transform="translate(422,297)"/>
<path d="M0 0 C0.99 0 1.98 0 3 0 C0.81659819 7.86379677 -1.99285026 15.41675284 -5 23 C-5.99 23 -6.98 23 -8 23 C-7.67 21.68 -7.34 20.36 -7 19 C-6.34 19 -5.68 19 -5 19 C-5 17.02 -5 15.04 -5 13 C-4.34 12.67 -3.68 12.34 -3 12 C-2.65458149 9.66842508 -2.32205743 7.33491639 -2 5 C-1.34 4.01 -0.68 3.02 0 2 C0 1.34 0 0.68 0 0 Z " fill="#DB8C23" transform="translate(414,318)"/>
<path d="M0 0 C4.95 1.98 4.95 1.98 10 4 C10 4.66 10 5.32 10 6 C3.6 6.36923077 3.6 6.36923077 0.5625 4.5 C0.046875 4.005 -0.46875 3.51 -1 3 C-0.67 2.01 -0.34 1.02 0 0 Z " fill="#DC8C23" transform="translate(984,396)"/>
<path d="M0 0 C3.63 1.32 7.26 2.64 11 4 C9 6 9 6 6.125 6.3125 C2.73620199 5.9736202 1.46115371 5.27183419 -1 3 C-0.67 2.01 -0.34 1.02 0 0 Z " fill="#DC8C23" transform="translate(552,396)"/>
<path d="M0 0 C1.4540625 0.0309375 1.4540625 0.0309375 2.9375 0.0625 C3.2675 1.7125 3.5975 3.3625 3.9375 5.0625 C1.27329484 5.0625 -0.58510646 4.97087763 -3.0625 4.0625 C-3.3925 3.0725 -3.7225 2.0825 -4.0625 1.0625 C-3.0625 0.0625 -3.0625 0.0625 0 0 Z " fill="#E08F24" transform="translate(706.0625,392.9375)"/>
<path d="M0 0 C0.28875 0.639375 0.5775 1.27875 0.875 1.9375 C1.82823451 4.15206079 1.82823451 4.15206079 4 5 C0.59068103 6.13643966 -0.00335456 5.86747764 -3.1875 4.5625 C-3.90292969 4.27503906 -4.61835937 3.98757813 -5.35546875 3.69140625 C-5.89816406 3.46324219 -6.44085937 3.23507812 -7 3 C-7 2.34 -7 1.68 -7 1 C-4.53721199 -0.231394 -2.7204945 -0.07159196 0 0 Z " fill="#DE9330" transform="translate(705,384)"/>
<path d="M0 0 C0.99 0 1.98 0 3 0 C3 3.3 3 6.6 3 10 C2.01 10 1.02 10 0 10 C0 6.7 0 3.4 0 0 Z " fill="#6E4012" transform="translate(662,388)"/>
<path d="M0 0 C0.99 0.66 1.98 1.32 3 2 C2.67 3.32 2.34 4.64 2 6 C0.35 5.67 -1.3 5.34 -3 5 C-3 3.68 -3 2.36 -3 1 C-2.01 0.67 -1.02 0.34 0 0 Z " fill="#12101D" transform="translate(968,387)"/>
</svg>
