<svg
  width="24"
  height="24"
  viewBox="0 0 24 24"
  fill="none"
  xmlns="http://www.w3.org/2000/svg"
>
  <path
    fill-rule="evenodd"
    clip-rule="evenodd"
    d="M9.06067 16.9393C8.47479 16.3534 7.52521 16.3534 6.93933 16.9393C6.35344 17.5252 6.35344 18.4748 6.93933 19.0607L8.87868 21L12 17.8787L15.1213 21L17.0607 19.0607C17.6466 18.4748 17.6466 17.5252 17.0607 16.9393C16.4748 16.3534 15.5252 16.3534 14.9393 16.9393L12 19.8787L9.06067 16.9393ZM4 12C4 6.47715 8.47715 2 14 2C19.5228 2 24 6.47715 24 12C24 17.5228 19.5228 22 14 22C8.47715 22 4 17.5228 4 12ZM2 12C2 18.6274 7.37258 24 14 24C20.6274 24 26 18.6274 26 12C26 5.37258 20.6274 0 14 0C7.37258 0 2 5.37258 2 12Z"
    fill="#5C5C7B"
  />
</svg>
