<svg
  width="24"
  height="24"
  viewBox="0 0 24 24"
  fill="none"
  xmlns="http://www.w3.org/2000/svg"
>
  <path
    fill-rule="evenodd"
    clip-rule="evenodd"
    d="M2.75 12C2.75 6.06751 6.06751 2.75 12 2.75C17.9325 2.75 21.25 6.06751 21.25 12C21.25 17.9325 17.9325 21.25 12 21.25C9.58664 21.25 7.37285 20.2684 5.89725 18.7475C5.40571 18.2695 4.93192 17.7752 4.47535 17.2651C4.07243 16.8272 3.72903 16.4626 3.46309 16.1884C2.63472 15.2926 2.75 13.9701 2.75 12ZM4.25 12C4.25 13.8916 4.62033 15.7487 5.29869 17.4435C5.74589 18.5746 6.29636 19.6409 6.92297 20.6226C7.58139 21.6427 8.35191 22.5799 9.24629 23.3749C9.6774 23.7588 10.1806 23.9132 10.6264 23.785C11.0965 23.6516 11.531 23.274 11.7953 22.8125C12.4657 21.6451 13.2164 20.4058 14 19.1094C14.7836 20.4058 15.5343 21.6451 16.2047 22.8125C16.469 23.274 16.9035 23.6516 17.3736 23.785C17.8194 23.9132 18.3226 23.7588 18.7537 23.3749C19.6481 22.5799 20.4186 21.6427 21.077 20.6226C21.7036 19.6409 22.2541 18.5746 22.7013 17.4435C23.3797 15.7487 23.75 13.8916 23.75 12C23.75 6.08446 19.9155 2.25 14 2.25C8.08451 2.25 4.25 6.08446 4.25 12ZM8.75 9.75H15.25C15.6642 9.75 16 10.0858 16 10.5C16 10.9142 15.6642 11.25 15.25 11.25H8.75C8.33579 11.25 8 10.9142 8 10.5C8 10.0858 8.33579 9.75 8.75 9.75ZM8.75 13.5H15.25C15.6642 13.5 16 13.8358 16 14.25C16 14.6642 15.6642 15 15.25 15H8.75C8.33579 15 8 14.6642 8 14.25C8 13.8358 8.33579 13.5 8.75 13.5ZM8.75 17.25H15.25C15.6642 17.25 16 17.5858 16 18C16 18.4142 15.6642 18.75 15.25 18.75H8.75C8.33579 18.75 8 18.4142 8 18C8 17.5858 8.33579 17.25 8.75 17.25Z"
    fill="#5C5C7B"
  />
</svg>
